<svg xmlns="http://www.w3.org/2000/svg" viewBox="0 0 150 150"><defs><style>.cls-1{fill:#cce6f1;}.cls-2{fill:#fff;}.cls-3{fill:#369fcd;}.cls-4{fill:#9bcee4;}.cls-5,.cls-6,.cls-7,.cls-8{fill:none;}.cls-5,.cls-6,.cls-8{stroke:#369fcd;}.cls-5{stroke-miterlimit:10;}.cls-5,.cls-6{stroke-width:2px;}.cls-6,.cls-7,.cls-8{stroke-linecap:round;stroke-linejoin:round;}.cls-7{stroke:#2f9ece;}</style></defs><title>Artboard 2 copy 3</title><g id="lock"><path class="cls-1" d="M74.36,5.5a4.06,4.06,0,1,0,5.84-.1L77.33,8.87l-3-3.37"/><rect class="cls-1" x="75.88" y="12.34" width="2.87" height="8.29"/><path class="cls-1" d="M79.63,15a3.06,3.06,0,0,1,4.71,0S82.33,17.52,79.63,15Z"/><path class="cls-1" d="M71.17,15a3.06,3.06,0,0,1,4.71,0S73.88,17.52,71.17,15Z"/><polygon class="cls-1" points="134.23 29.6 134.23 30.92 41.25 30.92 41.25 123.6 19.35 123.6 19.35 122.27 13.58 122.27 13.58 123.6 13.58 138.6 13.58 139.93 19.35 139.93 19.35 138.6 56.25 138.6 56.25 45.92 134.23 45.92 134.23 47.26 140 47.26 140 45.92 140 30.92 140 29.6 134.23 29.6"/><polygon class="cls-2" points="134.23 88.68 134.23 89.94 84.82 89.94 84.82 24.95 86.16 24.95 86.16 19.18 84.82 19.18 69.82 19.18 68.5 19.18 68.5 24.95 69.82 24.95 69.82 104.94 134.23 104.94 134.23 106.34 140 106.34 140 104.94 140 89.94 140 88.68 134.23 88.68"/><path class="cls-3" d="M101.69,91.39H84.82a1,1,0,0,1-1-1V79.82a1,1,0,0,1,1-1h16.87a1,1,0,0,1,1,1V90.39A1,1,0,0,1,101.69,91.39Zm-15.87-2h15.87V79.82H85.82Z"/><path class="cls-3" d="M69.82,65.82H56.25a1,1,0,0,1-1-1V46.37a1,1,0,0,1,1-1H69.82a1,1,0,0,1,1,1V64.82A1,1,0,0,1,69.82,65.82Zm-12.57-1H69.82V47.37H57.25Z"/><polygon class="cls-4" points="116.69 133.83 116.69 65.37 19.35 65.37 19.35 64.02 13.58 64.02 13.58 65.37 13.58 80.37 13.58 81.69 19.35 81.69 19.35 79.37 101.69 79.37 101.69 133.83 100.33 133.83 100.33 139.6 101.69 139.6 116.69 139.6 118 139.6 118 133.83 116.69 133.83"/><path class="cls-3" d="M19.35,142.38H13.58a2,2,0,0,1-2-2V122.72a2,2,0,0,1,2-2h5.77A2,2,0,0,1,21.24,122h18V81.82h-18a2,2,0,0,1-1.88,1.32H13.58a2,2,0,0,1-2-2V63.47a2,2,0,0,1,2-2h5.77a2,2,0,0,1,1.89,1.35h18V31.37a2,2,0,0,1,2-2H67.82V27.28A2,2,0,0,1,66.5,25.4V19.63a2,2,0,0,1,2-2H86.16a2,2,0,0,1,2,2V25.4a2,2,0,0,1-1.34,1.89v2.08h45.53A2,2,0,0,1,134.23,28H140a2,2,0,0,1,2,2V47.71a2,2,0,0,1-2,2h-5.77a2,2,0,0,1-1.89-1.34l-45.52-.06V62.76l29.87.06a2,2,0,0,1,2,2V88.39h13.69a2,2,0,0,1,1.86-1.26H140a2,2,0,0,1,2,2v17.66a2,2,0,0,1-2,2h-5.77a2,2,0,0,1-1.91-1.41H118.69v24a2,2,0,0,1,1.31,1.88V139a2,2,0,0,1-2,2H100.33a2,2,0,0,1-2-2v-5.77a2,2,0,0,1,1.36-1.89v-24H69.82a2,2,0,0,1-2-2V81.82H58.25V139a2,2,0,0,1-2,2h-35A2,2,0,0,1,19.35,142.38Zm-3.77-4h1.88A2,2,0,0,1,19.35,137h34.9V79.82a2,2,0,0,1,2-2H69.82a2,2,0,0,1,2,2v23.57h29.87a2,2,0,0,1,2,2v27.89a2,2,0,0,1-1.36,1.89V137H116v-1.89a2,2,0,0,1-1.31-1.88V105.39a2,2,0,0,1,2-2h17.54a2,2,0,0,1,1.91,1.41H138V91.13h-1.91a2,2,0,0,1-1.86,1.26H116.69a2,2,0,0,1-2-2V66.82H84.82a2,2,0,0,1-2-2V46.37a2,2,0,0,1,2-2h49.41a2,2,0,0,1,1.89,1.34H138V32h-1.89a2,2,0,0,1-1.88,1.32H84.82a2,2,0,0,1-2-2v-6a2,2,0,0,1,1.34-1.89V21.63H70.5v1.89a2,2,0,0,1,1.32,1.88v6a2,2,0,0,1-2,2H43.25V64.82a2,2,0,0,1-2,2H19.35a2,2,0,0,1-1.89-1.35H15.58V79.14h1.89a2,2,0,0,1,1.88-1.32h21.9a2,2,0,0,1,2,2V124a2,2,0,0,1-2,2H19.35a2,2,0,0,1-1.89-1.33H15.58Z"/><polyline class="cls-5" points="41.25 79.76 41.25 124.05 19.35 124.05 19.35 122.72 13.58 122.72 13.58 124.05 13.58 139.05 13.58 140.38 19.35 140.38 19.35 139.05 56.25 139.05 56.25 79.76"/><polyline class="cls-6" points="69.82 31.37 41.25 31.37 41.25 64.82"/><polyline class="cls-6" points="84.82 46.37 134.23 46.37 134.23 47.71 140 47.71 140 46.37 140 31.37 140 30.05 134.23 30.05 134.23 31.37 84.82 31.37"/><polyline class="cls-6" points="56.25 64.82 56.25 46.37 69.82 46.37"/><path class="cls-3" d="M17.46,65.47a2,2,0,0,0,1.89,1.35h95.34v66.46a2,2,0,0,0,1.31,1.88V137H102.33v-1.88a2,2,0,0,0,1.36-1.89V79.82a2,2,0,0,0-2-2H19.35a2,2,0,0,0-1.88,1.32H15.58V65.47h1.88m1.89-2H13.58V81.14h5.77V79.82h82.34v53.46h-1.36V139H118v-5.77h-1.31V64.82H19.35V63.47Z"/><polyline class="cls-6" points="83.82 64.82 83.82 25.4 86.16 25.4 86.16 19.63 84.82 19.63 69.82 19.63 68.5 19.63 68.5 25.4 70.82 25.4 70.82 64.82"/><polyline class="cls-6" points="102.69 90.39 84.82 90.39 84.82 79.76"/><polyline class="cls-5" points="115.75 105.39 134.23 105.39 134.23 106.79 140 106.79 140 105.39 140 90.39 140 89.13 134.23 89.13 134.23 90.39 115.63 90.39"/><polyline class="cls-5" points="69.82 79.76 69.82 105.39 102.69 105.39"/><path class="cls-7" d="M74.36,5.5a4.06,4.06,0,1,0,5.84-.1L77.33,8.87l-3-3.37"/><rect class="cls-8" x="75.88" y="12.34" width="2.87" height="8.29"/><path class="cls-7" d="M79.63,15a3.06,3.06,0,0,1,4.71,0S82.33,17.52,79.63,15Z"/><path class="cls-7" d="M71.17,15a3.06,3.06,0,0,1,4.71,0S73.88,17.52,71.17,15Z"/></g></svg>