<svg xmlns="http://www.w3.org/2000/svg" viewBox="0 0 150 150"><defs><style>.cls-1{fill:#cce6f1;}.cls-2{fill:#fff;}.cls-3{fill:#369fcd;}.cls-4{fill:#9bcee4;}</style></defs><title>Artboard 2 copy 2</title><g id="pager"><polygon class="cls-1" points="11.69 9.85 11.69 91.29 18.54 91.29 22.94 99.98 27.7 91.29 67.5 91.29 76.87 114 81.75 91.29 118.75 91.29 124 98.55 127.21 91.29 136.57 91.29 136.57 9.85 11.69 9.85"/><circle class="cls-1" cx="125.32" cy="114.6" r="11.25"/><path class="cls-2" d="M116.07,123.35s-.05,3,1.61,4.28,5.55-.45,5.8-.66.67-3.15-.09-3.9c0,0,4.26-.88,4.41-1.79s-5.39.35-7.46.71-1.46-1.56-1.46-1.56.05-3-1.81-2.29C117.08,118.13,117,122.69,116.07,123.35Z"/><path class="cls-3" d="M126.1,126.7a1,1,0,0,1-.07-2,10.11,10.11,0,1,0-9.57-5.19,1,1,0,0,1-1.75,1,12.12,12.12,0,1,1,11.46,6.21Z"/><ellipse class="cls-3" cx="121.88" cy="111.88" rx="1.68" ry="1.35" transform="translate(-6.75 215.94) rotate(-81.52)"/><ellipse class="cls-3" cx="128.77" cy="112.66" rx="1.68" ry="1.35" transform="translate(-10.09 212.63) rotate(-76.93)"/><path class="cls-3" d="M119.52,128.67a3.22,3.22,0,0,1-2-.59c-1.86-1.46-1.83-4.61-1.82-4.74a.5.5,0,0,1,.21-.4c.38-.28.76-2.56.81-4.89a.5.5,0,0,1,.33-.46,1.6,1.6,0,0,1,1.55.14c1,.69,1,2.46,1,2.66a.5.5,0,0,1,0,.14c-.06.19-.12.64,0,.83s.44.18.87.11l1.43-.27c4.12-.79,5.94-1,6.51-.48a.68.68,0,0,1,.2.61c-.16.93-2.25,1.63-4.21,2.08a5.55,5.55,0,0,1,.17,1.86c0,.42-.12,1.8-.52,2.13A10.66,10.66,0,0,1,119.52,128.67Zm-2.85-5.13c0,.65.2,2.77,1.44,3.75s4.56-.28,5.2-.63c.21-.57.38-2.79-.07-3.24a.5.5,0,0,1,.25-.84,16.72,16.72,0,0,0,3.71-1.16,41.56,41.56,0,0,0-5.16.77l-1.45.27a1.84,1.84,0,0,1-1.79-.44,2,2,0,0,1-.27-1.71c0-.49-.14-1.48-.54-1.77a.4.4,0,0,0-.31-.08C117.63,119.79,117.44,122.58,116.68,123.55Z"/><path class="cls-3" d="M121.56,118.47a.5.5,0,0,1-.07-1l6.89-1a.5.5,0,0,1,.14,1l-6.89,1Z"/><path class="cls-3" d="M132.49,110.46a.5.5,0,0,1-.44-.26c-.41-.77-1.06-1.68-1.84-1.69h0c-.92,0-1.81,1.22-2.07,1.7a.5.5,0,0,1-.87-.49c.05-.09,1.25-2.21,2.95-2.21h0c1,0,1.93.75,2.71,2.21a.5.5,0,0,1-.2.68A.49.49,0,0,1,132.49,110.46Z"/><path class="cls-3" d="M118.21,109.49a.5.5,0,0,1-.31-.89c1.63-1.28,5.29-.63,5.7-.55a.5.5,0,0,1-.19,1c-1-.19-3.82-.5-4.89.35A.5.5,0,0,1,118.21,109.49Z"/><circle class="cls-1" cx="22.94" cy="115.58" r="11.25"/><path class="cls-3" d="M22.94,127.36a11.78,11.78,0,1,1,11.78-11.78A11.79,11.79,0,0,1,22.94,127.36Zm0-21.55a9.78,9.78,0,1,0,9.78,9.78A9.79,9.79,0,0,0,22.94,105.81Z"/><rect class="cls-3" x="26" y="110.59" width="3.41" height="3.41" rx="1.36" ry="1.36"/><rect class="cls-3" x="16.84" y="110.59" width="3.41" height="3.41" rx="1.36" ry="1.36"/><path class="cls-2" d="M16.24,115.91,29,118C28.4,119.91,22.74,126.92,16.24,115.91Z"/><path class="cls-3" d="M23.7,122.62c-2.92,0-5.74-2.28-8.39-6.78a.5.5,0,0,1,.51-.75l13.82,2.3A.5.5,0,0,1,30,118a7.73,7.73,0,0,1-5.77,4.54Zm-7-6.36c2.41,3.74,5,5.59,7.42,5.34a6.7,6.7,0,0,0,4.66-3.33Z"/><path class="cls-4" d="M65.22,136.55A12.29,12.29,0,0,0,75,141c6.48,0,11.73-4.55,11.73-10.16a9,9,0,0,0-1.31-4.66l1.31-6.28-1.17-1.76-3.86,4.36A12.94,12.94,0,0,0,75,120.71a13.39,13.39,0,0,0-3.29.41l-5.09-4.81.09,7.37a9.51,9.51,0,0,0-3.44,7.19,8.9,8.9,0,0,0,.16,1.69"/><path class="cls-3" d="M75,142a13.31,13.31,0,0,1-10.52-4.88A1,1,0,0,1,66,135.93,11.3,11.3,0,0,0,75,140c5.92,0,10.73-4.11,10.73-9.16a8,8,0,0,0-1.17-4.15,1,1,0,0,1-.12-.72l1.23-5.87-.22-.33-3,3.39a1,1,0,0,1-1.27.19,12.19,12.19,0,0,0-9.22-1.3,1,1,0,0,1-.93-.24l-3.38-3.19.06,5a1,1,0,0,1-.34.77,8.48,8.48,0,0,0-3.09,6.43,7.93,7.93,0,0,0,.14,1.5,1,1,0,0,1-2,.38,10,10,0,0,1-.18-1.87,10.39,10.39,0,0,1,3.43-7.63l-.08-6.92a1,1,0,0,1,1.69-.74L72,120a14.24,14.24,0,0,1,9.47,1.24l3.33-3.76a1,1,0,0,1,.82-.33,1,1,0,0,1,.76.44l1.17,1.76a1,1,0,0,1,.15.76L86.43,126a10.07,10.07,0,0,1,1.26,4.83C87.68,137,82,142,75,142Z"/><path class="cls-3" d="M71.62,132c-.28-.47-.06-.86.49-.86h1.58a.56.56,0,0,1,.54.89l-.75,1.45c-.25.49-.69.5-1,0Z"/><path class="cls-3" d="M73.88,138.09A10,10,0,0,1,69.54,137a.5.5,0,0,1,.48-.88s4.06,2.16,6.89,0a.5.5,0,0,1,.6.8A5.91,5.91,0,0,1,73.88,138.09Z"/><path class="cls-3" d="M72.9,138h0a.5.5,0,0,1-.49-.51l.1-4.94a.48.48,0,0,1,.51-.49.5.5,0,0,1,.49.51l-.1,4.94A.5.5,0,0,1,72.9,138Z"/><circle class="cls-3" cx="69.09" cy="128.72" r="1.08"/><circle class="cls-3" cx="77.2" cy="127.79" r="2.2"/><path class="cls-3" d="M69.34,133.07a.51.51,0,0,1-.18,0l-3.67-1.41a.5.5,0,1,1,.36-.93l3.67,1.41a.5.5,0,0,1-.18,1Z"/><path class="cls-3" d="M75,133.57a.5.5,0,0,1-.14-1l8.5-2.44a.5.5,0,0,1,.28,1l-8.5,2.44Z"/><path class="cls-3" d="M83.51,134.89h0l-8.55-.49a.5.5,0,0,1-.47-.53.49.49,0,0,1,.53-.47l8.55.49a.5.5,0,0,1,0,1Z"/><path class="cls-3" d="M60.88,135.92a.5.5,0,0,1-.12-1l8.45-2.05a.5.5,0,1,1,.24,1L61,135.9Z"/><path class="cls-3" d="M76.87,116A2,2,0,0,1,75,114.76L66.16,93.29H28.89l-4.19,7.65a2,2,0,0,1-3.54-.06l-3.84-7.59H11.69a2,2,0,0,1-2-2V9.85a2,2,0,0,1,2-2H136.57a2,2,0,0,1,2,2V91.29a2,2,0,0,1-2,2h-8.06l-2.68,6.07a2,2,0,0,1-3.45.37l-4.65-6.43H83.37l-4.54,21.13A2,2,0,0,1,77,116ZM27.7,89.29H67.5a2,2,0,0,1,1.85,1.24l6.91,16.76,3.53-16.42a2,2,0,0,1,2-1.58h37a2,2,0,0,1,1.62.83l3.21,4.44,1.8-4.07a2,2,0,0,1,1.83-1.19h7.36V11.85H13.69V89.29h4.85a2,2,0,0,1,1.78,1.1L23,95.69l2.94-5.36A2,2,0,0,1,27.7,89.29Z"/></g></svg>