<?xml version="1.0" encoding="UTF-8" standalone="no"?>
<svg width="400px" height="400px" viewBox="0 0 400 400" version="1.1" xmlns="http://www.w3.org/2000/svg" xmlns:xlink="http://www.w3.org/1999/xlink">
    <!-- Generator: Sketch 40.3 (33839) - http://www.bohemiancoding.com/sketch -->
    <title>cog_peek</title>
    <desc>Created with Sketch.</desc>
    <defs></defs>
    <g id="Assets" stroke="none" stroke-width="1" fill="none" fill-rule="evenodd">
        <g id="cog_peek">
            <g id="Cog4.0" transform="translate(146.661992, 251.388333) rotate(40.000000) translate(-146.661992, -251.388333) translate(-128.338008, 31.888333)">
                <path d="M271.706552,19.5897655 C342.533479,19.5897655 403.976677,32.9954503 421.151566,37.107003 L421.151566,133.144385 L124.29024,133.144385 L124.29024,37.0752688 C141.129643,32.9418989 201.023687,19.5897655 271.706552,19.5897655" id="Fill-1-Copy" fill="#C8C9C4"></path>
                <polygon id="Fill-2" fill="#ABABA8" points="276.458607 360.150488 421.642953 360.150488 421.642953 369.153063 276.458607 369.153063"></polygon>
                <polygon id="Fill-3" fill="#C8C8C4" points="173.265215 139.689548 373.226463 139.689548 373.226463 352.63545 173.265215 352.63545"></polygon>
                <path d="M188.683737,43.8584383 C170.074155,43.8584383 154.987171,59.517246 154.987171,78.8334118 C154.987171,98.1495775 170.074155,113.806402 188.683737,113.806402 C207.295294,113.806402 222.380304,98.1495775 222.380304,78.8334118 C222.380304,59.517246 207.295294,43.8584383 188.683737,43.8584383" id="Fill-4" fill="#8E8F8B"></path>
                <path d="M356.811351,44.1321451 C338.347803,44.1321451 323.379226,59.6679831 323.379226,78.8334118 C323.379226,97.996857 338.347803,113.532695 356.811351,113.532695 C375.274899,113.532695 390.243476,97.996857 390.243476,78.8334118 C390.243476,59.6679831 375.274899,44.1321451 356.811351,44.1321451" id="Fill-5" fill="#8E8F8B"></path>
                <polygon id="Fill-6" fill="#ABABA8" points="123.798852 360.150488 268.983199 360.150488 268.983199 369.153063 123.798852 369.153063"></polygon>
                <path d="M77.2433203,255.733313 L77.1999045,255.840416 L47.3574751,243.87665 L47.3693158,243.85285 C53.6547368,229.836283 58.6968878,219.836067 64.3251519,211.121082 L89.3661905,229.994954 C84.6911002,237.1986 81.5631905,244.590668 77.2433203,255.733313" id="Fill-7" fill="#C8C8C4"></path>
                <path d="M90.5778855,228.182142 L65.5230327,209.29637 C71.6249235,200.176776 78.5438203,192.298779 88.493928,182.360047 L103.452638,212.830758 L102.992826,213.314704 C97.6467641,218.933627 93.749211,223.580694 90.5778855,228.182142" id="Fill-8" fill="#C8C8C4"></path>
                <path d="M90.5778855,228.182142 L65.5230327,209.29637 C65.9019341,208.731106 66.7367012,207.521242 67.1215229,206.963912 C73.4681207,211.579244 86.4474659,221.829366 88.0755577,222.997579 C91.3396351,218.644054 101.161469,208.161875 101.161469,208.161875 L103.452638,212.830758 L102.992826,213.314704 C97.6467641,218.933627 93.749211,223.580694 90.5778855,228.182142" id="Fill-10" fill="#A0A19D"></path>
                <polygon id="Fill-11" fill="#ABABA8" points="123.798852 373.445103 268.983199 373.445103 268.983199 381.842746 123.798852 381.842746"></polygon>
                <polygon id="Fill-12" fill="#ABABA8" points="276.458607 373.445103 421.642953 373.445103 421.642953 381.842746 276.458607 381.842746"></polygon>
                <path d="M441.276754,212.059222 L456.369658,181.320755 C466.189519,191.118666 473.1913,198.786424 479.415544,207.741398 L454.149533,226.78584 C450.729553,222.263727 446.721487,217.779299 441.631974,212.432098 L441.276754,212.059222" id="Fill-13" fill="#C8C8C4"></path>
                <path d="M441.276754,212.059222 L444.205346,206.097174 L457.267575,221.634995 C464.458808,216.716205 472.275622,210.726389 478.267,206.115024 C478.653795,206.652521 479.036643,207.193984 479.415544,207.741398 L454.149533,226.78584 C450.729553,222.263727 446.721487,217.779299 441.631974,212.432098 L441.276754,212.059222" id="Fill-14" fill="#A0A19D"></path>
                <path d="M455.422405,228.511383 L480.625266,209.512559 C486.366016,218.068873 491.544335,227.954053 497.83765,241.980536 L468.92866,254.791206 L468.910899,254.747572 C464.452887,243.249901 460.594803,235.689246 455.422405,228.511383" id="Fill-15" fill="#C8C8C4"></path>
                <path d="M455.422405,228.511383 L459.65939,225.318137 C459.65939,225.318137 469.562135,241.813932 472.954487,250.540817 C479.415544,247.950519 489.259086,242.771906 496.967361,240.054672 C497.174572,240.51085 497.628465,241.514441 497.83765,241.980536 L468.92866,254.791206 L468.910899,254.747572 C464.452887,243.249901 460.594803,235.689246 455.422405,228.511383" id="Fill-16" fill="#A0A19D"></path>
                <path d="M435.395889,78.3335993 C435.395889,99.2265544 434.667688,105.291739 427.55934,106.267564 L427.55934,50.3976516 C434.667688,51.3734759 435.395889,57.4406441 435.395889,78.3335993" id="Fill-17" fill="#3483AA"></path>
                <path d="M435.326818,86.7867771 C435.032775,100.93623 433.598081,105.43851 427.55934,106.267564 L427.55934,95.1031014 C430.491879,94.6945246 432.93303,92.7865102 435.326818,86.7867771" id="Fill-18" fill="#2A637F"></path>
                <path d="M271.706552,5.34510971 C298.300692,5.34510971 310.220297,5.72591922 311.795106,14.4865214 C298.971663,13.6515172 285.530532,13.1497213 271.706552,13.1497213 C257.831263,13.1497213 244.394079,13.6554839 231.616025,14.4964383 C233.184913,5.72591922 245.102545,5.34510971 271.706552,5.34510971" id="Fill-19" fill="#3483AA"></path>
                <path d="M239.681493,14.0164596 C236.966033,14.1612466 234.278202,14.3219006 231.616025,14.4964383 C232.54157,9.32774251 237.060759,7.07263619 246.059666,6.09284505 C241.848335,8.59190746 240.534021,11.3170755 239.681493,14.0164596" id="Fill-20" fill="#2B637F"></path>
                <path d="M110.864896,78.3335993 C110.864896,58.2756483 111.539814,51.8851887 117.882465,50.5424385 L117.882465,106.12476 C111.539814,104.780026 110.864896,98.3915502 110.864896,78.3335993" id="Fill-21" fill="#3483AA"></path>
                <path d="M117.882465,96.3308154 L117.882465,106.12476 C112.948854,105.079517 111.445089,100.983832 111.018825,89.7797018 C113.432348,94.0578587 115.251863,95.4442433 117.882465,96.3308154" id="Fill-22" fill="#2B637F"></path>
                <path d="M107.336377,212.604653 L105.209004,211.478091 L90.0055866,180.507568 L90.0055866,179.321505 C90.0055866,159.826835 102.7718,143.358807 117.882465,143.358807 L117.882465,215.268336 C114.265141,215.266353 110.681366,214.37978 107.336377,212.604653" id="Fill-24" fill="#3483AA"></path>
                <path d="M107.336377,212.604653 L105.209004,211.478091 L90.0055866,180.507568 L90.0055866,179.321505 C90.0055866,176.883927 90.2049045,174.495934 90.5838058,172.179343 C101.187124,173.504243 114.450645,179.751899 117.882465,198.475033 L117.882465,215.268336 C114.265141,215.266353 110.681366,214.37978 107.336377,212.604653" id="Fill-25" fill="#2B637F"></path>
                <path d="M428.32701,214.49085 C428.070462,214.49085 427.815888,214.47895 427.55934,214.471016 L427.55934,142.936346 C427.815888,142.926429 428.070462,142.910562 428.32701,142.910562 C443.082456,142.910562 455.086919,158.966046 455.086919,178.700706 L455.086919,179.077549 L439.439477,210.950511 L437.819279,211.809316 C434.543361,213.548743 432.058794,214.49085 428.32701,214.49085" id="Fill-26" fill="#3483AA"></path>
                <path d="M428.32701,214.49085 C428.070462,214.49085 427.815888,214.47895 427.55934,214.471016 L427.55934,164.414399 C437.817305,164.408449 449.936229,172.230911 452.505654,184.33748 C451.151871,187.02298 439.439477,210.950511 439.439477,210.950511 L437.819279,211.809316 C434.543361,213.548743 432.058794,214.49085 428.32701,214.49085" id="Fill-27" fill="#2A637F"></path>
                <path d="M517.581963,325.832014 L512.431273,314.514831 L528.457616,293.137931 L517.297787,266.723238 L488.957149,263.2305 L471.774367,286.150473 L482.934196,312.563183 L509.510575,315.839731 L514.617849,327.061711 C513.875834,327.333435 513.125925,327.591275 512.362202,327.825314 C501.464841,331.157397 489.930057,330.026869 479.879304,324.640001 C469.82855,319.253133 462.465629,310.256508 459.150242,299.304268 C454.74946,284.777972 458.171413,269.365104 468.305051,258.075688 L469.293747,256.974911 L498.751355,243.922268 L500.738613,243.959952 C519.265311,244.301094 535.340991,256.510799 540.740336,274.341411 C547.037597,295.133214 536.769765,317.085295 517.581963,325.832014" id="Fill-28" fill="#3483AA"></path>
                <polygon id="Fill-29" fill="#8E8F8C" points="123.798852 139.689548 168.994681 139.689548 168.994681 352.63545 123.798852 352.63545"></polygon>
                <polygon id="Fill-30" fill="#8E8F8C" points="377.498971 139.689548 421.644927 139.689548 421.644927 352.63545 377.498971 352.63545"></polygon>
                <polygon id="Fill-31" fill="#3483AA" points="97.8973916 387.98925 268.983199 387.98925 268.983199 432.420993 97.8973916 432.420993"></polygon>
                <polygon id="Fill-32" fill="#3483AA" points="276.458607 387.98925 447.718077 387.98925 447.718077 432.420993 276.458607 432.420993"></polygon>
                <polygon id="Fill-35-Copy" fill="#2B637F" points="276.458607 387.98925 296.44368 387.98925 296.44368 432.420993 276.458607 432.420993"></polygon>
                <path d="M188.683737,51.2445561 C203.283281,51.2445561 215.161444,63.6208652 215.161444,78.8334118 C215.161444,94.043975 203.283281,106.420284 188.683737,106.420284 C174.084194,106.420284 162.208005,94.043975 162.208005,78.8334118 C162.208005,63.6208652 174.084194,51.2445561 188.683737,51.2445561" id="Fill-37-Copy" fill="#4C4C49"></path>
                <path d="M207.520266,98.2011455 C202.716902,103.272655 196.046659,106.420284 188.683737,106.420284 C174.084194,106.420284 162.208005,94.043975 162.208005,78.8334118 C162.208005,71.2271385 165.176065,64.3309162 169.971536,59.3347748 C169.971536,82.0603757 182.946934,98.2011455 207.520266,98.2011455" id="Fill-38-Copy" fill="#393A38"></path>
                <path d="M356.811351,51.2445561 C371.410894,51.2445561 383.289057,63.6208652 383.289057,78.8334118 C383.289057,94.043975 371.410894,106.420284 356.811351,106.420284 C342.211808,106.420284 330.333645,94.043975 330.333645,78.8334118 C330.333645,63.6208652 342.211808,51.2445561 356.811351,51.2445561" id="Fill-39-Copy" fill="#4C4C49"></path>
                <path d="M375.525526,98.3320487 C370.730056,103.326207 364.111123,106.420284 356.811351,106.420284 C342.211808,106.420284 330.333645,94.043975 330.333645,78.8334118 C330.333645,70.7907942 333.652979,63.5415298 338.939837,58.4958038 C338.939837,83.5141953 349.182014,98.3320487 375.525526,98.3320487" id="Fill-40-Copy" fill="#393A38"></path>
                <path d="M146.473731,168.232411 C140.49222,168.232411 135.625706,173.307888 135.625706,179.545627 C135.625706,185.783366 140.49222,190.860826 146.473731,190.860826 C152.457215,190.860826 157.323729,185.783366 157.323729,179.545627 C157.323729,173.307888 152.457215,168.232411 146.473731,168.232411" id="Fill-41-Copy" fill="#4C4C49"></path>
                <path d="M399.021358,168.232411 C393.039847,168.232411 388.171359,173.307888 388.171359,179.545627 C388.171359,185.783366 393.039847,190.860826 399.021358,190.860826 C405.004842,190.860826 409.871356,185.783366 409.871356,179.545627 C409.871356,173.307888 405.004842,168.232411 399.021358,168.232411" id="Fill-43-Copy" fill="#4C4C49"></path>
                <path d="M399.021358,314.348227 C393.039847,314.348227 388.171359,319.423704 388.171359,325.661443 C388.171359,331.899182 393.039847,336.976642 399.021358,336.976642 C405.004842,336.976642 409.871356,331.899182 409.871356,325.661443 C409.871356,319.423704 405.004842,314.348227 399.021358,314.348227" id="Fill-44-Copy" fill="#4C4C49"></path>
                <path d="M139.010163,171.340372 C136.926206,173.405074 135.625706,176.320647 135.625706,179.545627 C135.625706,185.783366 140.49222,190.860826 146.473731,190.860826 C149.327332,190.860826 151.928332,189.704514 153.868228,187.818317 C145.413991,187.774683 139.173959,181.100599 139.010163,171.340372" id="Fill-45-Copy" fill="#393A38"></path>
                <path d="M391.143367,171.77275 C389.302143,173.80175 388.171359,176.538819 388.171359,179.545627 C388.171359,185.783366 393.039847,190.860826 399.021358,190.860826 C401.845357,190.860826 404.420702,189.728315 406.354678,187.877819 C396.031589,187.877819 391.143367,183.41124 391.143367,171.77275" id="Fill-47-Copy" fill="#393A38"></path>
                <path d="M391.518321,317.495856 C389.458045,319.556591 388.171359,322.456296 388.171359,325.661443 C388.171359,331.899182 393.039847,336.976642 399.021358,336.976642 C401.744711,336.976642 404.235198,335.925449 406.141546,334.191973 C397.156453,334.191973 391.518321,328.031586 391.518321,317.495856" id="Fill-48-Copy" fill="#393A38"></path>
                <path d="M251.230091,332.565599 C257.645759,334.148338 263.591748,334.858389 270.368557,334.858389 L271.984808,334.858389 C278.759643,334.858389 284.705632,334.148338 291.123274,332.565599 L293.868335,320.619684 C293.939379,320.020702 294.12291,319.025044 294.596536,318.370528 C295.192516,317.547424 296.102274,317.249916 296.706149,317.051578 L296.854157,317.001993 C299.772881,316.014269 302.667925,314.794488 305.462322,313.374386 L312.87458,308.963343 C315.961048,307.005744 318.919241,304.766504 321.628781,302.326944 L321.741267,302.223808 C322.181345,301.817214 322.919413,301.138897 323.927843,301.023861 C324.725115,300.934609 325.678289,301.261867 326.232827,301.495906 L337.929433,304.978726 C342.462435,300.147206 346.006742,295.295851 349.343837,289.369503 L350.139135,287.957335 C353.478203,282.030987 355.793054,276.481481 357.584941,270.089038 L348.591954,261.800481 C348.171611,261.491074 347.344737,260.812757 347.003331,260.057088 C346.582988,259.128865 346.784279,258.143123 346.902686,257.556042 L346.932287,257.403322 C347.51248,254.368746 347.883488,251.240951 348.031496,248.105223 L347.751267,240.177641 C347.613126,236.468715 347.169101,232.773673 346.427085,229.19565 L346.39551,229.040947 C346.267236,228.455849 346.054104,227.476057 346.458661,226.545851 C346.782306,225.802082 347.544055,225.139632 348.023602,224.77469 L356.884368,216.351263 C355.001702,209.990554 352.601994,204.474766 349.17412,198.599986 L348.357114,197.197735 C344.929241,191.322955 341.311917,186.527135 336.707871,181.765033 L325.066521,185.426357 C324.51593,185.66833 323.560783,186.015422 322.767458,185.934103 C321.759028,185.832951 321.013066,185.166534 320.567067,184.769858 L320.450634,184.664738 C318.112102,182.623837 315.58412,180.721773 312.93773,179.010114 L306.656256,175.475725 C303.425727,173.732332 300.027456,172.248761 296.583795,171.080549 L296.435787,171.032948 C295.867435,170.84651 294.920181,170.535119 294.324201,169.713998 C293.848601,169.057498 293.66507,168.06184 293.596,167.462859 L290.848965,155.516944 C284.433296,153.934204 278.487308,153.224153 271.710499,153.224153 L270.094248,153.224153 C263.319413,153.224153 257.373424,153.934204 250.955782,155.516944 L248.210721,167.462859 C248.139677,168.06184 247.956146,169.057498 247.48252,169.712015 C246.884566,170.537102 245.935339,170.84651 245.36896,171.032948 L245.220952,171.080549 C242.290387,172.074224 239.377583,173.303921 236.567397,174.731957 L229.204476,179.1192 C226.116035,181.078782 223.157841,183.318021 220.450275,185.755599 L220.333842,185.862702 C219.893764,186.267312 219.157669,186.943645 218.151212,187.058681 C217.349994,187.155867 216.398794,186.820675 215.846229,186.586636 L204.149623,183.103816 C199.616621,187.935337 196.074287,192.786691 192.735219,198.711056 L191.939921,200.125208 C188.600853,206.053539 186.286002,211.603044 184.496088,217.993504 L193.485128,226.280078 C193.970596,226.637087 194.742212,227.287636 195.075725,228.025455 C195.496068,228.951694 195.29675,229.935452 195.17637,230.524517 L195.146769,230.677237 C194.566576,233.711813 194.197542,236.839608 194.04756,239.97732 L194.327789,247.904901 C194.46593,251.61581 194.911929,255.310853 195.65197,258.886892 L195.683545,259.039612 C195.811819,259.62471 196.024951,260.604502 195.620395,261.536691 C195.29675,262.282443 194.535001,262.944893 194.057427,263.307852 L185.192714,271.731279 C187.079327,278.093972 189.477062,283.607776 192.904935,289.482556 L193.721942,290.884808 C197.149815,296.759588 200.767139,301.555408 205.369212,306.31751 L217.012535,302.656185 C217.563126,302.414212 218.510379,302.071087 219.313571,302.150422 C220.320028,302.247608 221.067963,302.917992 221.515935,303.316652 L221.630395,303.417804 C223.968927,305.458705 226.494936,307.360769 229.141325,309.072429 L235.4228,312.606817 C238.655302,314.352194 242.0516,315.835764 245.495261,317.00001 L245.645243,317.051578 C246.249117,317.249916 247.160848,317.547424 247.754855,318.368544 C248.230455,319.025044 248.413985,320.020702 248.483056,320.619684 L251.230091,332.565599" id="Fill-49-Copy" fill="#DDDCD8"></path>
                <path d="M146.473731,133.144385 L153.868228,133.144385 L153.868228,30.7839784 C151.275121,31.2659404 148.808316,31.7399689 146.473731,32.2020971 L146.473731,133.144385" id="Fill-50-Copy" fill="#A0A19D"></path>
                <path d="M137.35247,34.0843275 C131.736046,35.2922076 127.31553,36.3315003 124.29024,37.0752688 L124.29024,133.144385 L137.35247,133.144385 L137.35247,34.0843275" id="Fill-51-Copy" fill="#A0A19D"></path>
                <polygon id="Fill-56-Copy" fill="#8E8F8B" points="314.626999 360.150488 321.656409 360.150488 321.656409 369.153063 314.626999 369.153063"></polygon>
                <polygon id="Fill-57-Copy" fill="#8E8F8B" points="276.458607 360.150488 306.731247 360.150488 306.731247 369.153063 276.458607 369.153063"></polygon>
                <polygon id="Fill-58-Copy" fill="#8E8F8B" points="314.626999 373.143629 321.656409 373.143629 321.656409 382.146204 314.626999 382.146204"></polygon>
                <polygon id="Fill-59-Copy" fill="#8E8F8B" points="276.458607 373.143629 306.731247 373.143629 306.731247 382.146204 276.458607 382.146204"></polygon>
                <path d="M326.886037,233.162416 C335.766538,228.009587 338.809589,216.599186 333.68258,207.673963 C328.555571,198.74874 317.200371,195.692347 308.321843,200.843192 C302.073918,204.468816 298.732876,211.192484 299.076255,217.96772 L235.075473,255.104581 C229.334723,251.411522 221.792218,250.996995 215.50877,254.699971 C209.008243,258.529883 205.677069,265.689895 206.359881,272.762639 L219.658924,264.926293 L227.530995,269.424605 L227.592171,278.528333 L214.293128,286.362695 C220.099002,290.416729 227.943445,290.99191 234.443971,287.161998 C240.758994,283.443155 244.082275,276.580651 243.642196,269.708229 L307.508784,232.64872 C313.176517,236.333845 320.640085,236.78804 326.886037,233.162416 L326.886037,233.162416 Z M317.604927,226.10554 L309.760485,221.553676 L309.760485,212.451932 L317.602953,207.900069 L325.447396,212.451932 L325.447396,221.55566 L317.604927,226.10554 L317.604927,226.10554 Z" id="Fill-67-Copy" fill="#3D95BC"></path>
                <path d="M234.047309,200.978062 C225.166808,195.825234 213.811608,198.88361 208.684599,207.808833 C203.557589,216.734056 206.600641,228.144458 215.481142,233.297286 C221.727094,236.92291 229.190662,236.468715 234.858394,232.781607 L298.859177,269.920451 C298.547372,276.763122 301.961432,283.534391 308.292242,287.152081 C314.842104,290.894725 322.678653,290.214424 328.431244,286.085021 L315.031555,278.42718 L314.970378,269.325436 L322.785219,264.722004 L336.184908,272.377862 C336.774968,265.297185 333.349068,258.182791 326.799205,254.440148 C320.43682,250.804607 312.860766,251.342104 307.159485,255.160116 L243.290923,218.100607 C243.634303,211.325371 240.293261,204.603686 234.047309,200.978062 L234.047309,200.978062 Z M232.606694,212.586802 L232.606694,221.688546 L224.764225,226.24041 L216.919783,221.688546 L216.919783,212.586802 L224.764225,208.034939 L232.606694,212.586802 L232.606694,212.586802 Z" id="Fill-68-Copy" fill="#2E7893"></path>
                <path d="M279.501658,280.456181 L279.501658,206.337163 C285.643018,203.282753 289.893818,196.959729 289.943154,189.603362 C289.99249,182.030806 285.573947,175.491592 279.178013,172.46495 L279.075394,187.957154 L271.203324,192.455466 L263.390457,187.852035 L263.491102,172.359831 C257.055699,175.301188 252.552299,181.7809 252.502963,189.353455 C252.453627,196.674122 256.582073,203.030864 262.634627,206.182459 L262.634627,280.456181 C256.625488,283.544308 252.500989,289.813781 252.500989,297.063045 C252.500989,307.368703 260.813138,315.722711 271.067156,315.722711 C281.321174,315.722711 289.633323,307.368703 289.633323,297.063045 C289.633323,289.813781 285.510797,283.544308 279.501658,280.456181 L279.501658,280.456181 Z M278.911598,301.614909 L271.067156,306.166773 L263.224687,301.614909 L263.224687,292.513165 L271.067156,287.961301 L278.911598,292.513165 L278.911598,301.614909 L278.911598,301.614909 Z" id="Fill-69-Copy" fill="#25627F"></path>
                <path d="M188.683737,51.2445561 C203.283281,51.2445561 215.161444,63.6208652 215.161444,78.8334118 C215.161444,94.043975 203.283281,106.420284 188.683737,106.420284 C174.084194,106.420284 162.208005,94.043975 162.208005,78.8334118 C162.208005,63.6208652 174.084194,51.2445561 188.683737,51.2445561 M188.683737,47.9719743 C172.262705,47.9719743 158.951821,61.7902028 158.951821,78.8334118 C158.951821,95.8766208 172.262705,109.692866 188.683737,109.692866 C205.10477,109.692866 218.417627,95.8766208 218.417627,78.8334118 C218.417627,61.7902028 205.10477,47.9719743 188.683737,47.9719743" id="Fill-70-Copy" fill="#0B0B0A"></path>
                <path d="M356.811351,51.2445561 C371.410894,51.2445561 383.289057,63.6208652 383.289057,78.8334118 C383.289057,94.043975 371.410894,106.420284 356.811351,106.420284 C342.211808,106.420284 330.333645,94.043975 330.333645,78.8334118 C330.333645,63.6208652 342.211808,51.2445561 356.811351,51.2445561 M356.811351,47.9719743 C340.390318,47.9719743 327.079435,61.7902028 327.079435,78.8334118 C327.079435,95.8766208 340.390318,109.692866 356.811351,109.692866 C373.232384,109.692866 386.545241,95.8766208 386.545241,78.8334118 C386.545241,61.7902028 373.232384,47.9719743 356.811351,47.9719743" id="Fill-71-Copy" fill="#0B0B0A"></path>
                <path d="M146.473731,194.133408 C138.696385,194.133408 132.369522,187.588245 132.369522,179.545627 C132.369522,171.50301 138.696385,164.959829 146.473731,164.959829 C154.251076,164.959829 160.579913,171.50301 160.579913,179.545627 C160.579913,187.588245 154.251076,194.133408 146.473731,194.133408 L146.473731,194.133408 Z M146.473731,168.232411 C140.49222,168.232411 135.625706,173.307888 135.625706,179.545627 C135.625706,185.783366 140.49222,190.860826 146.473731,190.860826 C152.457215,190.860826 157.323729,185.783366 157.323729,179.545627 C157.323729,173.307888 152.457215,168.232411 146.473731,168.232411 L146.473731,168.232411 Z" id="Fill-72-Copy" fill="#0B0B0A"></path>
                <path d="M146.473731,340.247241 C138.696385,340.247241 132.369522,333.704061 132.369522,325.661443 C132.369522,317.618825 138.696385,311.075645 146.473731,311.075645 C154.251076,311.075645 160.579913,317.618825 160.579913,325.661443 C160.579913,333.704061 154.251076,340.247241 146.473731,340.247241 L146.473731,340.247241 Z M146.473731,314.348227 C140.49222,314.348227 135.625706,319.423704 135.625706,325.661443 C135.625706,331.899182 140.49222,336.976642 146.473731,336.976642 C152.457215,336.976642 157.323729,331.899182 157.323729,325.661443 C157.323729,319.423704 152.457215,314.348227 146.473731,314.348227 L146.473731,314.348227 Z" id="Fill-73-Copy" fill="#0B0B0A"></path>
                <path d="M399.021358,194.133408 C391.244013,194.133408 384.915176,187.588245 384.915176,179.545627 C384.915176,171.50301 391.244013,164.959829 399.021358,164.959829 C406.798703,164.959829 413.12754,171.50301 413.12754,179.545627 C413.12754,187.588245 406.798703,194.133408 399.021358,194.133408 L399.021358,194.133408 Z M399.021358,168.232411 C393.039847,168.232411 388.171359,173.307888 388.171359,179.545627 C388.171359,185.783366 393.039847,190.860826 399.021358,190.860826 C405.004842,190.860826 409.871356,185.783366 409.871356,179.545627 C409.871356,173.307888 405.004842,168.232411 399.021358,168.232411 L399.021358,168.232411 Z" id="Fill-74-Copy" fill="#0B0B0A"></path>
                <path d="M399.021358,340.247241 C391.244013,340.247241 384.915176,333.704061 384.915176,325.661443 C384.915176,317.618825 391.244013,311.075645 399.021358,311.075645 C406.798703,311.075645 413.12754,317.618825 413.12754,325.661443 C413.12754,333.704061 406.798703,340.247241 399.021358,340.247241 L399.021358,340.247241 Z M399.021358,314.348227 C393.039847,314.348227 388.171359,319.423704 388.171359,325.661443 C388.171359,331.899182 393.039847,336.976642 399.021358,336.976642 C405.004842,336.976642 409.871356,331.899182 409.871356,325.661443 C409.871356,319.423704 405.004842,314.348227 399.021358,314.348227 L399.021358,314.348227 Z" id="Fill-75-Copy" fill="#0B0B0A"></path>
                <path d="M546.873801,272.465131 C540.860716,252.613452 523.342448,238.819024 502.899535,237.59726 C489.699164,208.485167 480.662761,196.541235 461.48088,177.344072 C460.914501,154.683923 446.259701,136.468535 428.32701,136.468535 C428.070462,136.468535 427.815888,136.486385 427.55934,136.494319 L427.55934,112.844461 C441.898389,111.493777 441.908256,98.0940428 441.908256,78.3335993 C441.908256,58.5711724 441.898389,45.1734211 427.55934,43.8227374 L427.55934,32.0652437 C427.55934,32.0652437 380.510447,19.4846462 316.975398,14.8435303 C316.168259,5.98772576 309.450654,3.30619212 304.319698,2.06261106 C296.830476,0.245832353 285.743664,0.245832353 271.706552,0.245832353 C257.669441,0.245832353 246.582629,0.245832353 239.093407,2.06261106 C233.960477,3.3081755 227.240898,5.99169252 226.437706,14.8574139 C163.49469,19.5084468 117.882465,32.0652437 117.882465,32.0652437 L117.882465,43.9119896 C104.362396,45.6950508 104.352529,58.9539653 104.352529,78.3335993 C104.352529,97.7112499 104.362396,110.972148 117.882465,112.753226 L117.882465,136.02029 C99.235387,136.02029 83.416255,154.985397 82.7275228,177.772483 C62.8983514,197.655896 54.8032816,209.671229 41.5752824,238.920177 C18.2333795,241.970619 0.182281677,262.335995 0.0895297807,286.219891 C0.0145388855,305.192932 11.1131914,322.442413 28.3610973,330.167689 L33.482186,332.460479 L33.6124334,286.83474 L62.9575547,286.949776 L62.8095464,333.235982 L68.0016792,330.844022 C84.556906,323.213949 95.3023119,305.843481 95.3773028,286.592767 C95.4207186,275.259718 89.918755,264.779522 84.7285957,256.645669 C91.5152717,239.285119 95.0694454,232.547567 106.466088,220.302162 C110.118934,221.839283 113.986885,222.610819 117.882465,222.610819 L117.882465,381.84473 L91.7836602,381.84473 L91.7836602,438.565513 L453.831808,438.565513 L453.831808,381.84473 L427.55934,381.84473 L427.55934,220.913044 C427.815888,220.918994 428.070462,220.934861 428.32701,220.934861 C432.412041,220.934861 435.4768,220.066139 438.624444,218.602403 C450.352626,231.077881 455.58028,238.521517 462.232762,255.283085 C451.601816,268.109622 448.152235,285.115147 453.016776,301.180548 C456.831444,313.778996 465.301468,324.128288 476.86388,330.32636 C484.0709,334.188006 491.939024,336.147588 499.882138,336.147588 C504.681556,336.147588 509.508601,335.431587 514.231054,333.987684 C540.10686,326.072003 554.749819,298.473231 546.873801,272.465131 L546.873801,272.465131 Z M276.458607,360.150488 L421.642953,360.150488 L421.642953,369.153063 L276.458607,369.153063 L276.458607,360.150488 Z M173.265215,139.689548 L373.226463,139.689548 L373.226463,352.63545 L173.265215,352.63545 L173.265215,139.689548 Z M123.798852,139.689548 L168.994681,139.689548 L168.994681,352.63545 L123.798852,352.63545 L123.798852,139.689548 Z M123.798852,360.150488 L268.983199,360.150488 L268.983199,369.153063 L123.798852,369.153063 L123.798852,360.150488 Z M377.498971,139.689548 L421.644927,139.689548 L421.644927,352.63545 L377.498971,352.63545 L377.498971,139.689548 Z M435.395889,78.3335993 C435.395889,99.2265544 434.667688,105.291739 427.55934,106.267564 L427.55934,50.3976516 C434.667688,51.3734759 435.395889,57.4406441 435.395889,78.3335993 L435.395889,78.3335993 Z M271.706552,5.34510971 C298.300692,5.34510971 310.220297,5.72591922 311.795106,14.4865214 C298.971663,13.6515172 285.530532,13.1497213 271.706552,13.1497213 C257.831263,13.1497213 244.394079,13.6554839 231.616025,14.4964383 C233.184913,5.72591922 245.102545,5.34510971 271.706552,5.34510971 L271.706552,5.34510971 Z M271.706552,19.5897655 C342.533479,19.5897655 403.976677,32.9954503 421.151566,37.107003 L421.151566,133.144385 L124.29024,133.144385 L124.29024,37.0752688 C141.129643,32.9418989 201.023687,19.5897655 271.706552,19.5897655 L271.706552,19.5897655 Z M110.864896,78.3335993 C110.864896,58.2756483 111.539814,51.8851887 117.882465,50.5424385 L117.882465,106.12476 C111.539814,104.780026 110.864896,98.3915502 110.864896,78.3335993 L110.864896,78.3335993 Z M88.0755577,286.565 C88.0203013,300.5895 81.0086526,313.832548 70.1507603,321.230566 L70.2829811,279.64101 L26.3323962,279.468456 L26.2139895,320.712903 C14.5686929,313.326785 7.33601839,300.349511 7.39127484,286.247659 C7.47021262,265.404288 23.7017945,247.724413 44.3420517,246.000853 L46.3746997,245.832266 L76.9413832,258.085605 L77.5945934,259.083247 C82.4966298,266.558617 88.1150266,276.435864 88.0755577,286.565 L88.0755577,286.565 Z M77.2433203,255.733313 L77.1999045,255.840416 L47.3574751,243.87665 L47.3693158,243.85285 C53.6547368,229.836283 58.6968878,219.836067 64.3251519,211.121082 L89.3661905,229.994954 C84.6911002,237.1986 81.5631905,244.590668 77.2433203,255.733313 L77.2433203,255.733313 Z M90.5778855,228.182142 L65.5230327,209.29637 C71.6249235,200.176776 78.5438203,192.298779 88.493928,182.360047 L103.452638,212.830758 L102.992826,213.314704 C97.6467641,218.933627 93.749211,223.580694 90.5778855,228.182142 L90.5778855,228.182142 Z M107.336377,212.604653 L105.209004,211.478091 L90.0055866,180.507568 L90.0055866,179.321505 C90.0055866,159.826835 102.7718,143.358807 117.882465,143.358807 L117.882465,215.268336 C114.265141,215.266353 110.681366,214.37978 107.336377,212.604653 L107.336377,212.604653 Z M123.798852,373.445103 L268.983199,373.445103 L268.983199,381.842746 L123.798852,381.842746 L123.798852,373.445103 Z M97.8973916,387.98925 L268.983199,387.98925 L268.983199,432.420993 L97.8973916,432.420993 L97.8973916,387.98925 Z M276.458607,387.98925 L447.718077,387.98925 L447.718077,432.420993 L276.458607,432.420993 L276.458607,387.98925 Z M276.458607,373.445103 L421.642953,373.445103 L421.642953,381.842746 L276.458607,381.842746 L276.458607,373.445103 Z M428.32701,214.49085 C428.070462,214.49085 427.815888,214.47895 427.55934,214.471016 L427.55934,142.936346 C427.815888,142.926429 428.070462,142.910562 428.32701,142.910562 C443.082456,142.910562 455.086919,158.966046 455.086919,178.700706 L455.086919,179.077549 L439.439477,210.950511 L437.819279,211.809316 C434.543361,213.548743 432.058794,214.49085 428.32701,214.49085 L428.32701,214.49085 Z M441.276754,212.059222 L456.369658,181.320755 C466.189519,191.118666 473.1913,198.786424 479.415544,207.741398 L454.149533,226.78584 C450.729553,222.263727 446.721487,217.779299 441.631974,212.432098 L441.276754,212.059222 L441.276754,212.059222 Z M455.422405,228.511383 L480.625266,209.512559 C486.366016,218.068873 491.544335,227.954053 497.83765,241.980536 L468.92866,254.791206 L468.910899,254.747572 C464.452887,243.249901 460.594803,235.689246 455.422405,228.511383 L455.422405,228.511383 Z M517.581963,325.832014 L512.431273,314.514831 L528.457616,293.137931 L517.297787,266.723238 L488.957149,263.2305 L471.774367,286.150473 L482.934196,312.563183 L509.510575,315.839731 L514.617849,327.061711 C513.875834,327.333435 513.125925,327.591275 512.362202,327.825314 C501.464841,331.157397 489.930057,330.026869 479.879304,324.640001 C469.82855,319.253133 462.465629,310.256508 459.150242,299.304268 C454.74946,284.777972 458.171413,269.365104 468.305051,258.075688 L469.293747,256.974911 L498.751355,243.922268 L500.738613,243.959952 C519.265311,244.301094 535.340991,256.510799 540.740336,274.341411 C547.037597,295.133214 536.769765,317.085295 517.581963,325.832014 L517.581963,325.832014 Z M486.778466,307.436138 L478.117018,286.931926 L491.453556,269.138998 L513.451544,271.852266 L522.114965,292.356478 L508.778427,310.147422 L486.778466,307.436138 L486.778466,307.436138 Z" id="Fill-76-Copy" fill="#0B0B0A"></path>
                <path d="M271.706552,100.240063 C251.080109,100.240063 234.053229,93.7345673 233.338842,93.4568937 C230.820727,92.4810693 229.567589,89.640865 230.538524,87.1120519 C231.507485,84.5832387 234.333458,83.325774 236.847627,84.2956482 C237.019316,84.3610998 252.974616,90.4223179 271.706552,90.4223179 C290.633859,90.4223179 308.811258,84.2916814 308.992815,84.2301965 C311.548425,83.3555247 314.319142,84.7319924 315.187457,87.2984898 C316.055773,89.8649873 314.688176,92.6536236 312.134538,93.5243287 C311.331347,93.7980355 292.23235,100.240063 271.706552,100.240063" id="Fill-77-Copy" fill="#0B0B0A"></path>
                <path d="M271.984808,338.130971 L270.368557,338.130971 C262.972086,338.130971 256.524843,337.317784 249.463858,335.493072 L248.504764,335.245149 L245.256474,321.063962 C245.230819,320.823972 245.171616,320.520515 245.11636,320.33606 C244.984139,320.276559 244.76706,320.205157 244.636812,320.161522 L244.453282,320.102021 C240.839905,318.878274 237.273891,317.321318 233.855885,315.474789 L227.463897,311.876932 C224.602403,310.028419 221.950093,308.031153 219.495128,305.889099 L219.35304,305.762163 C219.246474,305.66696 219.064917,305.504323 218.942564,305.421021 C218.806396,305.464655 218.468937,305.585642 218.263699,305.678861 L218.076221,305.750262 L204.447613,310.036353 L203.750987,309.330268 C198.614111,304.131822 194.655381,298.953209 190.91373,292.540932 L190.096724,291.138681 C186.355073,284.726404 183.791568,278.724687 181.786549,271.679711 L181.514213,270.723721 L192.044514,260.733421 C192.235938,260.590618 192.466831,260.384346 192.597078,260.245509 C192.581291,260.098739 192.531954,259.874617 192.504326,259.74173 L192.462884,259.553309 C191.68732,255.798765 191.219614,251.919268 191.073579,248.023904 L190.789403,239.959469 L190.79335,239.892034 C190.945305,236.575818 191.336047,233.269519 191.949788,230.058422 L191.987284,229.871984 C192.014912,229.731164 192.062275,229.493158 192.074115,229.346388 C191.975443,229.257135 191.718895,229.034996 191.507737,228.882276 L191.353808,228.757323 L180.833375,219.056597 L181.089923,218.09664 C182.988376,211.023897 185.461102,204.984496 189.106055,198.514701 L189.903326,197.100549 C193.546305,190.630754 197.426097,185.39264 202.484036,180.116841 L203.170794,179.398857 L217.052004,183.54611 C217.271056,183.641313 217.565099,183.738498 217.74863,183.782133 C217.86901,183.694864 218.036753,183.54016 218.135425,183.446941 L218.279486,183.318021 C221.121246,180.759457 224.225475,178.407165 227.50534,176.32858 L235.004429,171.863985 C238.045507,170.31298 241.102373,169.023781 244.180947,167.980522 L244.36053,167.92102 C244.496698,167.877386 244.729564,167.800034 244.861785,167.736565 C244.889413,167.607646 244.95651,167.274437 244.984139,167.014614 L245.015714,166.818259 L248.230455,152.837393 L249.189549,152.589471 C256.250534,150.764758 262.697778,149.951571 270.094248,149.951571 L271.710499,149.951571 C279.108943,149.951571 285.556186,150.764758 292.617171,152.589471 L293.574292,152.837393 L296.822582,167.018581 C296.848237,167.256587 296.909413,167.562028 296.962696,167.746482 C297.096891,167.807967 297.313969,167.877386 297.444217,167.92102 L297.6238,167.980522 C301.239151,169.204269 304.805165,170.761224 308.223171,172.607754 L314.615158,176.20561 C317.476653,178.054123 320.128963,180.05139 322.583928,182.195427 L322.727989,182.322363 C322.834555,182.417565 323.016112,182.578219 323.136492,182.661522 C323.262793,182.619871 323.582491,182.508801 323.819304,182.401698 L324.002834,182.33228 L337.631443,178.04619 L338.328069,178.752274 C343.464945,183.95072 347.423675,189.129333 351.165326,195.543593 L351.984305,196.943862 C355.723983,203.358122 358.287488,209.359838 360.292507,216.402831 L360.564843,217.358821 L350.034542,227.349121 C349.843118,227.491925 349.612225,227.698196 349.481978,227.837033 C349.497765,227.983803 349.545128,228.207926 349.57473,228.342796 L349.616172,228.531217 C350.391736,232.285761 350.859442,236.165258 351.005477,240.058638 L351.289653,248.125057 L351.285706,248.190508 C351.131777,251.504741 350.743009,254.813024 350.129268,258.02412 L350.091772,258.208575 C350.064144,258.351379 350.014808,258.591368 350.004941,258.736155 C350.103613,258.825407 350.358187,259.047546 350.569346,259.200266 L350.723274,259.32522 L361.247655,269.025945 L360.989133,269.985903 C359.088706,277.060629 356.617953,283.10003 352.973001,289.569825 L352.177703,290.981994 C348.532751,297.449805 344.652959,302.687919 339.593047,307.967684 L338.908262,308.683686 L325.029026,304.538415 C324.809973,304.44123 324.513957,304.344044 324.330426,304.30041 C324.210046,304.387678 324.042303,304.544366 323.941658,304.637585 L323.801543,304.762538 C320.955836,307.325068 317.851608,309.675377 314.573716,311.753962 L306.979901,316.270125 C304.031575,317.769563 300.974709,319.060745 297.898109,320.102021 L297.714579,320.161522 C297.580384,320.20714 297.351465,320.282509 297.217271,320.345977 C297.191616,320.474897 297.124519,320.808105 297.096891,321.065945 L297.063342,321.264283 L293.848601,335.245149 L292.889507,335.493072 C285.828522,337.317784 279.381278,338.130971 271.984808,338.130971 L271.984808,338.130971 Z M251.230091,332.565599 C257.645759,334.148338 263.591748,334.858389 270.368557,334.858389 L271.984808,334.858389 C278.759643,334.858389 284.705632,334.148338 291.123274,332.565599 L293.868335,320.619684 C293.939379,320.020702 294.12291,319.025044 294.596536,318.370528 C295.192516,317.547424 296.102274,317.249916 296.706149,317.051578 L296.854157,317.001993 C299.772881,316.014269 302.667925,314.794488 305.462322,313.374386 L312.87458,308.963343 C315.961048,307.005744 318.919241,304.766504 321.628781,302.326944 L321.741267,302.223808 C322.181345,301.817214 322.919413,301.138897 323.927843,301.023861 C324.725115,300.934609 325.678289,301.261867 326.232827,301.495906 L337.929433,304.978726 C342.462435,300.147206 346.006742,295.295851 349.343837,289.369503 L350.139135,287.957335 C353.478203,282.030987 355.793054,276.481481 357.584941,270.089038 L348.591954,261.800481 C348.171611,261.491074 347.344737,260.812757 347.003331,260.057088 C346.582988,259.128865 346.784279,258.143123 346.902686,257.556042 L346.932287,257.403322 C347.51248,254.368746 347.883488,251.240951 348.031496,248.105223 L347.751267,240.177641 C347.613126,236.468715 347.169101,232.773673 346.427085,229.19565 L346.39551,229.040947 C346.267236,228.455849 346.054104,227.476057 346.458661,226.545851 C346.782306,225.802082 347.544055,225.139632 348.023602,224.77469 L356.884368,216.351263 C355.001702,209.990554 352.601994,204.474766 349.17412,198.599986 L348.357114,197.197735 C344.929241,191.322955 341.311917,186.527135 336.707871,181.765033 L325.066521,185.426357 C324.51593,185.66833 323.560783,186.015422 322.767458,185.934103 C321.759028,185.832951 321.013066,185.166534 320.567067,184.769858 L320.450634,184.664738 C318.112102,182.623837 315.58412,180.721773 312.93773,179.010114 L306.656256,175.475725 C303.425727,173.732332 300.027456,172.248761 296.583795,171.080549 L296.435787,171.032948 C295.867435,170.84651 294.920181,170.535119 294.324201,169.713998 C293.848601,169.057498 293.66507,168.06184 293.596,167.462859 L290.848965,155.516944 C284.433296,153.934204 278.487308,153.224153 271.710499,153.224153 L270.094248,153.224153 C263.319413,153.224153 257.373424,153.934204 250.955782,155.516944 L248.210721,167.462859 C248.139677,168.06184 247.956146,169.057498 247.48252,169.712015 C246.884566,170.537102 245.935339,170.84651 245.36896,171.032948 L245.220952,171.080549 C242.290387,172.074224 239.377583,173.303921 236.567397,174.731957 L229.204476,179.1192 C226.116035,181.078782 223.157841,183.318021 220.450275,185.755599 L220.333842,185.862702 C219.893764,186.267312 219.157669,186.943645 218.151212,187.058681 C217.349994,187.155867 216.398794,186.820675 215.846229,186.586636 L204.149623,183.103816 C199.616621,187.935337 196.074287,192.786691 192.735219,198.711056 L191.939921,200.125208 C188.600853,206.053539 186.286002,211.603044 184.496088,217.993504 L193.485128,226.280078 C193.970596,226.637087 194.742212,227.287636 195.075725,228.025455 C195.496068,228.951694 195.29675,229.935452 195.17637,230.524517 L195.146769,230.677237 C194.566576,233.711813 194.197542,236.839608 194.04756,239.97732 L194.327789,247.904901 C194.46593,251.61581 194.911929,255.310853 195.65197,258.886892 L195.683545,259.039612 C195.811819,259.62471 196.024951,260.604502 195.620395,261.536691 C195.29675,262.282443 194.535001,262.944893 194.057427,263.307852 L185.192714,271.731279 C187.079327,278.093972 189.477062,283.607776 192.904935,289.482556 L193.721942,290.884808 C197.149815,296.759588 200.767139,301.555408 205.369212,306.31751 L217.012535,302.656185 C217.563126,302.414212 218.510379,302.071087 219.313571,302.150422 C220.320028,302.247608 221.067963,302.917992 221.515935,303.316652 L221.630395,303.417804 C223.968927,305.458705 226.494936,307.360769 229.141325,309.072429 L235.4228,312.606817 C238.655302,314.352194 242.0516,315.835764 245.495261,317.00001 L245.645243,317.051578 C246.249117,317.249916 247.160848,317.547424 247.754855,318.368544 C248.230455,319.025044 248.413985,320.020702 248.483056,320.619684 L251.230091,332.565599 L251.230091,332.565599 Z" id="Fill-78-Copy" fill="#0B0B0A"></path>
                <path d="M195.202025,58.0634264 L196.257818,55.6337823 C193.546305,54.5706891 190.597979,53.9816244 187.513485,53.9816244 C187.448361,54.285082 187.529272,56.5302714 187.513485,56.8357124 C190.420369,56.8357124 192.879281,57.2105717 195.202025,58.0634264" id="Fill-79-Copy" fill="#FFFFFF"></path>
                <path d="M206.659844,63.5097957 C206.265155,62.9901494 205.848759,62.4863702 205.414601,62.0004414 C204.865983,61.3895594 204.287764,60.8044615 203.681916,60.2510977 C202.38931,59.0729682 200.96251,58.0435925 199.437037,57.1689207 L198.278625,59.5628638 C204.200932,62.9028806 208.315564,68.1628119 211.021157,72.9546649 C211.021157,71.3679586 208.743802,66.256781 206.659844,63.5097957" id="Fill-80-Copy" fill="#FFFFFF"></path>
                <path d="M363.248727,58.0634264 L364.302547,55.6337823 C361.593007,54.5706891 358.644681,53.9816244 355.560187,53.9816244 C355.495063,54.285082 355.575975,56.5302714 355.560187,56.8357124 C358.465098,56.8357124 360.925983,57.2105717 363.248727,58.0634264" id="Fill-81-Copy" fill="#FFFFFF"></path>
                <path d="M374.704573,63.5097957 C374.309884,62.9901494 373.895461,62.4863702 373.461303,62.0004414 C372.912686,61.3895594 372.334466,60.8044615 371.728619,60.2510977 C370.436013,59.0729682 369.009212,58.0435925 367.483739,57.1689207 L366.323354,59.5628638 C372.247635,62.9028806 376.362267,68.1628119 379.067859,72.9546649 C379.067859,71.3679586 376.790504,66.256781 374.704573,63.5097957" id="Fill-82-Copy" fill="#FFFFFF"></path>
            </g>
        </g>
    </g>
</svg>