<svg xmlns="http://www.w3.org/2000/svg" viewBox="0 0 150 150"><defs><style>.cls-1{fill:#cce6f1;}.cls-2{fill:#9bcee4;}.cls-3{fill:#369fcd;}</style></defs><title>Artboard 2 copy 4</title><g id="lock"><polygon class="cls-1" points="9.58 48.83 9.58 102.25 15.47 102.25 17.5 112.16 27.39 102.25 86.89 102.25 86.89 48.83 9.58 48.83"/><path class="cls-1" d="M144,74c-.23-12-18.75-21.38-41.38-20.95S61.85,63.56,62.08,75.56s18.75,21.38,41.38,20.95a67,67,0,0,0,24.87-5h0l10.41,8.74-2.27-13.38C141.28,83.21,144.09,78.76,144,74Z"/><path class="cls-2" d="M86.88,55c-14.73,3.56-25,11.51-24.81,20.54.17,8.88,10.36,16.32,24.81,19.42Z"/><path class="cls-3" d="M17.61,113.76a2,2,0,0,1-2-1.6l-1.7-8.31H9.69a2,2,0,0,1-2-2V48.43a2,2,0,0,1,2-2H87a2,2,0,0,1,2,2v53.43a2,2,0,0,1-2,2H28.33L19,113.17A2,2,0,0,1,17.61,113.76ZM11.69,99.85h3.89a2,2,0,0,1,2,1.6l1.28,6.26,7.26-7.27a2,2,0,0,1,1.42-.59H85V50.43H11.69Z"/><path class="cls-3" d="M138.83,101.87a2,2,0,0,1-1.29-.47l-9.47-8a69.65,69.65,0,0,1-24.47,4.66c-24.11.42-43.16-9.6-43.41-22.91S78.6,51.1,102.69,50.64c11.23-.22,21.92,1.92,30,6C141.23,61,146,67,146.11,73.55h0c.09,5-2.45,9.7-7.38,13.77l2.07,12.21a2,2,0,0,1-2,2.33Zm-9-12.15,6.1,5.12-1.36-8a2,2,0,0,1,.76-1.93c3.14-2.39,6.86-6.28,6.76-11.27h0c-.1-5-4.07-9.79-11.19-13.39-7.53-3.81-17.5-5.81-28.14-5.6C81.65,55,64,64.42,64.19,75.12s18.22,19.44,39.34,19a64.75,64.75,0,0,0,24.11-4.82A2,2,0,0,1,129.85,89.72Z"/></g></svg>