<svg xmlns="http://www.w3.org/2000/svg" viewBox="0 0 150 150"><defs><style>.cls-1{fill:#cce6f1;}.cls-2{fill:#9bcee4;}.cls-3{fill:#ed1c24;}.cls-4{fill:#369fcd;}</style></defs><title>Artboard 2 copy</title><g id="lock"><circle class="cls-1" cx="74.99" cy="96.17" r="47.21"/><circle class="cls-2" cx="74.99" cy="96.17" r="37.9"/><circle class="cls-1" cx="75.99" cy="96.17" r="15.39"/><line class="cls-3" x1="99.67" y1="71.49" x2="95.91" y2="75.25"/><line class="cls-3" x1="109.89" y1="96.17" x2="104.58" y2="96.17"/><line class="cls-3" x1="99.67" y1="120.84" x2="95.91" y2="117.08"/><line class="cls-3" x1="74.99" y1="131.06" x2="74.99" y2="125.75"/><line class="cls-3" x1="50.32" y1="120.84" x2="54.07" y2="117.08"/><line class="cls-3" x1="40.1" y1="96.17" x2="45.41" y2="96.17"/><line class="cls-3" x1="50.32" y1="71.49" x2="54.07" y2="75.25"/><path class="cls-2" d="M61,92.79l30,.06a14.1,14.1,0,0,1,0,6.63H61A17.61,17.61,0,0,1,61,92.79Z"/><path class="cls-2" d="M42.7,40.91q0-.15,0-.29a33.29,33.29,0,0,1,66.58.17v21.9l-7.93-6.34V40.81a25.36,25.36,0,0,0-50.72-.31q0,.21,0,.42V56.7L42.7,63V40.91Z"/><path class="cls-4" d="M76,144.88A49.21,49.21,0,1,1,125.2,95.67,49.27,49.27,0,0,1,76,144.88Zm0-94.42A45.21,45.21,0,1,0,121.2,95.67,45.26,45.26,0,0,0,76,50.46Z"/><path class="cls-4" d="M76,134.56a38.9,38.9,0,1,1,38.9-38.9A38.94,38.94,0,0,1,76,134.56Zm0-75.79a36.9,36.9,0,1,0,36.9,36.9A36.94,36.94,0,0,0,76,58.77Z"/><path class="cls-4" d="M76,112.05A16.39,16.39,0,1,1,92.38,95.67,16.4,16.4,0,0,1,76,112.05Zm0-30.77A14.39,14.39,0,1,0,90.38,95.67,14.4,14.4,0,0,0,76,81.28Z"/><path class="cls-4" d="M76,67.08a1,1,0,0,1-1-1V60.77a1,1,0,0,1,2,0v5.31A1,1,0,0,1,76,67.08Z"/><path class="cls-4" d="M76,55.07a1,1,0,0,1-1-1V52.77a1,1,0,1,1,2,0v1.31A1,1,0,0,1,76,55.07Z"/><path class="cls-4" d="M96.91,75.75A1,1,0,0,1,96.21,74L100,70.29a1,1,0,1,1,1.41,1.41l-3.75,3.75A1,1,0,0,1,96.91,75.75Z"/><path class="cls-4" d="M110.89,96.67h-5.31a1,1,0,1,1,0-2h5.31a1,1,0,1,1,0,2Z"/><path class="cls-4" d="M100.67,121.34A1,1,0,0,1,100,121l-3.75-3.75a1,1,0,0,1,1.41-1.41l3.75,3.75a1,1,0,0,1-.71,1.71Z"/><path class="cls-4" d="M76,131.56a1,1,0,0,1-1-1v-5.31a1,1,0,1,1,2,0v5.31A1,1,0,0,1,76,131.56Z"/><path class="cls-4" d="M51.32,121.34a1,1,0,0,1-.71-1.71l3.75-3.75a1,1,0,0,1,1.41,1.41L52,121A1,1,0,0,1,51.32,121.34Z"/><path class="cls-4" d="M46.41,96.67H41.1a1,1,0,0,1,0-2h5.31a1,1,0,0,1,0,2Z"/><path class="cls-4" d="M55.07,75.75a1,1,0,0,1-.71-.29L50.61,71.7A1,1,0,0,1,52,70.29L55.78,74a1,1,0,0,1-.71,1.71Z"/><path class="cls-4" d="M91,100H61a1,1,0,0,1-1-.79,18.54,18.54,0,0,1,0-7.12,1,1,0,0,1,1-.78h0l30,.06a1,1,0,0,1,1,.71,15,15,0,0,1,0,7.14A1,1,0,0,1,91,100ZM61.81,98H90.2a13.87,13.87,0,0,0,0-4.63l-28.41-.06A16.89,16.89,0,0,0,61.81,98Z"/><path class="cls-4" d="M42.7,63.54a1,1,0,0,1-1-1V40.11a34.29,34.29,0,0,1,68.58.17V62.19a1,1,0,0,1-1.62.78l-7.93-6.35a1,1,0,0,1-.37-.78V40.31A24.36,24.36,0,0,0,51.63,40V56.2a1,1,0,0,1-.37.78l-7.93,6.34A1,1,0,0,1,42.7,63.54ZM76,8.12a32.38,32.38,0,0,0-32.29,32V60.46l5.93-4.74V40a26.36,26.36,0,0,1,52.72.32V55.37l5.93,4.74V40.29A32.35,32.35,0,0,0,76,8.12Z"/></g></svg>