<?xml version="1.0" encoding="UTF-8" standalone="no"?>
<svg width="300px" height="241px" viewBox="0 0 300 241" version="1.1" xmlns="http://www.w3.org/2000/svg" xmlns:xlink="http://www.w3.org/1999/xlink">
    <!-- Generator: Sketch 41.2 (35397) - http://www.bohemiancoding.com/sketch -->
    <title>Space</title>
    <desc>Created with Sketch.</desc>
    <defs>
        <rect id="path-1" x="0" y="0" width="300" height="241"></rect>
    </defs>
    <g id="Page-1" stroke="none" stroke-width="1" fill="none" fill-rule="evenodd">
        <g id="Space">
            <mask id="mask-2" fill="white">
                <use xlink:href="#path-1"></use>
            </mask>
            <use id="Mask" fill="#2A6D8A" xlink:href="#path-1"></use>
            <g mask="url(#mask-2)">
                <g transform="translate(-98.000000, -162.000000)">
                    <polyline id="Fill-1" fill="#252624" points="556.40571 502.323882 576.362324 502.444605 884.5554 483.885129 883.964347 72.4301126 25.9843848 72.4301126 25.9843848 489.38527 556.40571 502.323882"></polyline>
                    <g id="Group-9" stroke-width="1" fill="none" transform="translate(127.745766, 71.464328)"></g>
                    <path d="M184.491416,346.712853 C184.491416,347.245966 184.064333,347.678638 183.537152,347.678638 C183.010924,347.678638 182.583841,347.245966 182.583841,346.712853 C182.583841,346.17974 183.010924,345.747069 183.537152,345.747069 C184.064333,345.747069 184.491416,346.17974 184.491416,346.712853" id="Fill-184" fill="#E2963A"></path>
                    <path d="M103.501921,367.777575 C103.501921,368.310687 103.074838,368.743359 102.54861,368.743359 C102.022382,368.743359 101.595299,368.310687 101.595299,367.777575 C101.595299,367.243496 102.022382,366.81179 102.54861,366.81179 C103.074838,366.81179 103.501921,367.243496 103.501921,367.777575" id="Fill-186" fill="#E2963A"></path>
                    <path d="M344.402675,173.515858 C344.402675,174.048971 343.975592,174.481642 343.449364,174.481642 C342.923136,174.481642 342.496053,174.048971 342.496053,173.515858 C342.496053,172.981779 342.923136,172.550073 343.449364,172.550073 C343.975592,172.550073 344.402675,172.981779 344.402675,173.515858" id="Fill-190" fill="#E2963A"></path>
                    <path d="M285.761651,287.437842 C285.761651,287.970955 285.334568,288.403626 284.80834,288.403626 C284.282112,288.403626 283.855029,287.970955 283.855029,287.437842 C283.855029,286.903763 284.282112,286.472058 284.80834,286.472058 C285.334568,286.472058 285.761651,286.903763 285.761651,287.437842" id="Fill-193" fill="#CBCCCB"></path>
                    <path d="M170.422451,179.63217 C170.422451,180.165283 169.995368,180.597954 169.46914,180.597954 C168.941959,180.597954 168.515829,180.165283 168.515829,179.63217 C168.515829,179.099057 168.941959,178.666385 169.46914,178.666385 C169.995368,178.666385 170.422451,179.099057 170.422451,179.63217" id="Fill-195" fill="#CBCCCB"></path>
                    <path d="M139.987042,271.024338 C139.987042,272.358086 138.920287,273.438799 137.603765,273.438799 C136.287242,273.438799 135.220487,272.358086 135.220487,271.024338 C135.220487,269.691555 136.287242,268.609877 137.603765,268.609877 C138.920287,268.609877 139.987042,269.691555 139.987042,271.024338" id="Fill-252" fill="#3C95BB"></path>
                </g>
            </g>
        </g>
    </g>
</svg>